<svg width="47" height="42" viewBox="0 0 47 42" fill="none" xmlns="http://www.w3.org/2000/svg">
<g clip-path="url(#clip0)">
<path d="M34.5934 10.9083C34.275 10.5433 33.8167 10.3333 33.3334 10.3333H10.3017L9.97669 8.39333C9.84335 7.59 9.14835 7 8.33335 7H4.58335C3.66169 7 2.91669 7.745 2.91669 8.66667C2.91669 9.58833 3.66169 10.3333 4.58335 10.3333H6.92169L10.0217 28.94C10.035 29.015 10.0734 29.0767 10.0967 29.1467C10.1234 29.235 10.145 29.3183 10.1867 29.3983C10.24 29.5083 10.3117 29.6017 10.3867 29.6967C10.4384 29.7617 10.485 29.8267 10.545 29.8833C10.6417 29.9733 10.7534 30.0367 10.8667 30.1C10.93 30.135 10.985 30.1817 11.0534 30.2083C11.2467 30.2867 11.45 30.3333 11.665 30.3333C11.6667 30.3333 30 30.3333 30 30.3333C30.9217 30.3333 31.6667 29.5883 31.6667 28.6667C31.6667 27.745 30.9217 27 30 27H13.0784L12.8017 25.3333H31.6667C32.4967 25.3333 33.2 24.7233 33.3167 23.9033L34.9834 12.2367C35.0517 11.7567 34.9084 11.2717 34.5934 10.9083ZM31.4117 13.6667L30.9367 17H25V13.6667H31.4117ZM23.3334 13.6667V17H18.3334V13.6667H23.3334ZM23.3334 18.6667V22H18.3334V18.6667H23.3334ZM16.6667 13.6667V17H11.6667C11.5784 17 11.4984 17.025 11.42 17.05L10.8567 13.6667H16.6667ZM11.69 18.6667H16.6667V22H12.245L11.69 18.6667ZM25 22V18.6667H30.6967L30.2217 22H25Z" fill="#D72323"/>
<path d="M14.1667 37C15.5474 37 16.6667 35.8807 16.6667 34.5C16.6667 33.1193 15.5474 32 14.1667 32C12.786 32 11.6667 33.1193 11.6667 34.5C11.6667 35.8807 12.786 37 14.1667 37Z" fill="#D72323"/>
<path d="M29.1667 37C30.5474 37 31.6667 35.8807 31.6667 34.5C31.6667 33.1193 30.5474 32 29.1667 32C27.786 32 26.6667 33.1193 26.6667 34.5C26.6667 35.8807 27.786 37 29.1667 37Z" fill="#D72323"/>
</g>
<path d="M38.3571 10.7857V13.1429C38.3571 13.4738 38.484 13.767 38.7156 13.9986C38.9473 14.2303 39.2405 14.3571 39.5714 14.3571C39.9024 14.3571 40.1956 14.2303 40.4272 13.9986L46.1415 8.28436C46.3731 8.05273 46.5 7.75951 46.5 7.42857C46.5 7.09763 46.3731 6.80442 46.1415 6.57279L40.4272 0.8585C40.1956 0.62687 39.9024 0.5 39.5714 0.5C39.2405 0.5 38.9473 0.62687 38.7156 0.8585C38.484 1.09013 38.3571 1.38335 38.3571 1.71429V4.07143H36.3571C30.994 4.07143 27.4518 5.58846 26.1276 8.88271L26.1276 8.8827L26.1266 8.8853C25.7021 9.95856 25.5 11.2644 25.5 12.7857C25.5 14.1277 26.0074 15.8829 26.9593 18.0195C26.9829 18.0746 27.0225 18.1649 27.0771 18.2889C27.1338 18.4172 27.1852 18.5315 27.2313 18.6314C27.2864 18.7509 27.3513 18.8641 27.4288 18.9654C27.5809 19.1764 27.8189 19.3571 28.1429 19.3571C28.3778 19.3571 28.6137 19.2722 28.7861 19.0694C28.9371 18.8917 29 18.6788 29 18.4665C29 18.363 28.9865 18.2359 28.9671 18.1C28.9582 18.0383 28.9522 17.9903 28.9484 17.9546C28.9448 17.9208 28.9443 17.9074 28.9442 17.9074C28.9442 17.9074 28.9442 17.9076 28.9442 17.9081V17.8901L28.9429 17.8718C28.9063 17.3753 28.8884 16.9302 28.8884 16.5357C28.8884 15.8122 28.9512 15.1756 29.0722 14.6225C29.1949 14.0616 29.3617 13.591 29.5668 13.204C29.7692 12.8221 30.0285 12.4953 30.3455 12.2204C30.6774 11.9325 31.0324 11.699 31.4109 11.5181C31.7865 11.3386 32.2406 11.1918 32.779 11.0827C33.3282 10.9714 33.8809 10.8942 34.437 10.8512C34.998 10.8078 35.6377 10.7857 36.3571 10.7857H38.3571Z" fill="#D72323" stroke="#FECA0B"/>
<defs>
<clipPath id="clip0">
<rect width="40" height="40" fill="white" transform="translate(0 2)"/>
</clipPath>
</defs>
</svg>
